<mxfile host="app.diagrams.net" modified="2021-02-19T19:42:37.823Z" agent="5.0 (Windows NT 10.0; Win64; x64) AppleWebKit/537.36 (KHTML, like Gecko) Chrome/88.0.4324.150 Safari/537.36" etag="V6hdT8VjJ_gWtIqQGCgQ" version="14.4.2" type="github">
  <diagram id="C5RBs43oDa-KdzZeNtuy" name="Page-1">
    <mxGraphModel dx="1422" dy="825" grid="1" gridSize="10" guides="1" tooltips="1" connect="1" arrows="1" fold="1" page="1" pageScale="1" pageWidth="1169" pageHeight="827" math="0" shadow="0">
      <root>
        <mxCell id="WIyWlLk6GJQsqaUBKTNV-0" />
        <mxCell id="WIyWlLk6GJQsqaUBKTNV-1" parent="WIyWlLk6GJQsqaUBKTNV-0" />
        <mxCell id="1f6V_7u13nr4Cq0EWLbW-1" value="" style="edgeStyle=orthogonalEdgeStyle;rounded=0;orthogonalLoop=1;jettySize=auto;html=1;exitX=1;exitY=0;exitDx=0;exitDy=0;" edge="1" parent="WIyWlLk6GJQsqaUBKTNV-1" source="WIyWlLk6GJQsqaUBKTNV-6" target="WIyWlLk6GJQsqaUBKTNV-7">
          <mxGeometry relative="1" as="geometry" />
        </mxCell>
        <mxCell id="1f6V_7u13nr4Cq0EWLbW-4" value="" style="edgeStyle=orthogonalEdgeStyle;rounded=0;orthogonalLoop=1;jettySize=auto;html=1;" edge="1" parent="WIyWlLk6GJQsqaUBKTNV-1" source="WIyWlLk6GJQsqaUBKTNV-6" target="WIyWlLk6GJQsqaUBKTNV-12">
          <mxGeometry relative="1" as="geometry" />
        </mxCell>
        <mxCell id="WIyWlLk6GJQsqaUBKTNV-6" value="&lt;br&gt;Marker Needs&lt;br&gt;&amp;nbsp;Work?" style="rhombus;whiteSpace=wrap;html=1;shadow=0;fontFamily=Helvetica;fontSize=12;align=center;strokeWidth=1;spacing=6;spacingTop=-4;" parent="WIyWlLk6GJQsqaUBKTNV-1" vertex="1">
          <mxGeometry x="30" y="110" width="120" height="100" as="geometry" />
        </mxCell>
        <mxCell id="1f6V_7u13nr4Cq0EWLbW-2" value="" style="edgeStyle=orthogonalEdgeStyle;rounded=0;orthogonalLoop=1;jettySize=auto;html=1;" edge="1" parent="WIyWlLk6GJQsqaUBKTNV-1" source="WIyWlLk6GJQsqaUBKTNV-7">
          <mxGeometry relative="1" as="geometry">
            <mxPoint x="360" y="90" as="targetPoint" />
          </mxGeometry>
        </mxCell>
        <mxCell id="WIyWlLk6GJQsqaUBKTNV-7" value="Yes" style="rounded=1;whiteSpace=wrap;html=1;fontSize=12;glass=0;strokeWidth=1;shadow=0;" parent="WIyWlLk6GJQsqaUBKTNV-1" vertex="1">
          <mxGeometry x="200" y="70" width="120" height="40" as="geometry" />
        </mxCell>
        <mxCell id="1f6V_7u13nr4Cq0EWLbW-8" value="" style="edgeStyle=orthogonalEdgeStyle;rounded=0;orthogonalLoop=1;jettySize=auto;html=1;" edge="1" parent="WIyWlLk6GJQsqaUBKTNV-1" source="1f6V_7u13nr4Cq0EWLbW-14" target="1f6V_7u13nr4Cq0EWLbW-5">
          <mxGeometry relative="1" as="geometry" />
        </mxCell>
        <mxCell id="WIyWlLk6GJQsqaUBKTNV-11" value="Upate fields if Needed ,if not needed pass to next step" style="rounded=1;whiteSpace=wrap;html=1;fontSize=12;glass=0;strokeWidth=1;shadow=0;" parent="WIyWlLk6GJQsqaUBKTNV-1" vertex="1">
          <mxGeometry x="15" y="440" width="150" height="70" as="geometry" />
        </mxCell>
        <mxCell id="1f6V_7u13nr4Cq0EWLbW-13" value="" style="edgeStyle=orthogonalEdgeStyle;rounded=0;orthogonalLoop=1;jettySize=auto;html=1;" edge="1" parent="WIyWlLk6GJQsqaUBKTNV-1" source="WIyWlLk6GJQsqaUBKTNV-12" target="1f6V_7u13nr4Cq0EWLbW-11">
          <mxGeometry relative="1" as="geometry" />
        </mxCell>
        <mxCell id="WIyWlLk6GJQsqaUBKTNV-12" value="No" style="rounded=1;whiteSpace=wrap;html=1;fontSize=12;glass=0;strokeWidth=1;shadow=0;" parent="WIyWlLk6GJQsqaUBKTNV-1" vertex="1">
          <mxGeometry x="30" y="250" width="120" height="40" as="geometry" />
        </mxCell>
        <mxCell id="1f6V_7u13nr4Cq0EWLbW-28" value="" style="edgeStyle=orthogonalEdgeStyle;rounded=0;orthogonalLoop=1;jettySize=auto;html=1;" edge="1" parent="WIyWlLk6GJQsqaUBKTNV-1" source="1f6V_7u13nr4Cq0EWLbW-5" target="1f6V_7u13nr4Cq0EWLbW-27">
          <mxGeometry relative="1" as="geometry" />
        </mxCell>
        <mxCell id="1f6V_7u13nr4Cq0EWLbW-5" value="Change&lt;br&gt;Work Complete = Declined" style="rounded=1;whiteSpace=wrap;html=1;fontSize=12;glass=0;strokeWidth=1;shadow=0;" vertex="1" parent="WIyWlLk6GJQsqaUBKTNV-1">
          <mxGeometry x="30" y="660" width="120" height="70" as="geometry" />
        </mxCell>
        <mxCell id="1f6V_7u13nr4Cq0EWLbW-9" value="Marker is &lt;br&gt;Passed to Inspector for Verification" style="ellipse;whiteSpace=wrap;html=1;rounded=1;shadow=0;strokeWidth=1;glass=0;" vertex="1" parent="WIyWlLk6GJQsqaUBKTNV-1">
          <mxGeometry x="470" y="641.25" width="160" height="107.5" as="geometry" />
        </mxCell>
        <mxCell id="1f6V_7u13nr4Cq0EWLbW-12" value="" style="edgeStyle=orthogonalEdgeStyle;rounded=0;orthogonalLoop=1;jettySize=auto;html=1;" edge="1" parent="WIyWlLk6GJQsqaUBKTNV-1" source="1f6V_7u13nr4Cq0EWLbW-11" target="WIyWlLk6GJQsqaUBKTNV-11">
          <mxGeometry relative="1" as="geometry" />
        </mxCell>
        <mxCell id="1f6V_7u13nr4Cq0EWLbW-11" value="Los, Marker Type, &lt;br&gt;Offset, Dig Required&lt;br&gt;etc all correct?" style="rounded=1;whiteSpace=wrap;html=1;fontSize=12;glass=0;strokeWidth=1;shadow=0;" vertex="1" parent="WIyWlLk6GJQsqaUBKTNV-1">
          <mxGeometry x="20" y="320" width="140" height="80" as="geometry" />
        </mxCell>
        <mxCell id="1f6V_7u13nr4Cq0EWLbW-14" value="Change&lt;br&gt;Work Required = &lt;br&gt;No Work Needed" style="rounded=1;whiteSpace=wrap;html=1;fontSize=12;glass=0;strokeWidth=1;shadow=0;" vertex="1" parent="WIyWlLk6GJQsqaUBKTNV-1">
          <mxGeometry x="15" y="540" width="150" height="70" as="geometry" />
        </mxCell>
        <mxCell id="1f6V_7u13nr4Cq0EWLbW-15" value="" style="edgeStyle=orthogonalEdgeStyle;rounded=0;orthogonalLoop=1;jettySize=auto;html=1;" edge="1" parent="WIyWlLk6GJQsqaUBKTNV-1" source="WIyWlLk6GJQsqaUBKTNV-11" target="1f6V_7u13nr4Cq0EWLbW-14">
          <mxGeometry relative="1" as="geometry">
            <mxPoint x="90" y="470" as="sourcePoint" />
            <mxPoint x="90" y="675" as="targetPoint" />
          </mxGeometry>
        </mxCell>
        <mxCell id="1f6V_7u13nr4Cq0EWLbW-22" value="" style="edgeStyle=orthogonalEdgeStyle;rounded=0;orthogonalLoop=1;jettySize=auto;html=1;" edge="1" parent="WIyWlLk6GJQsqaUBKTNV-1" source="1f6V_7u13nr4Cq0EWLbW-16" target="1f6V_7u13nr4Cq0EWLbW-21">
          <mxGeometry relative="1" as="geometry" />
        </mxCell>
        <mxCell id="1f6V_7u13nr4Cq0EWLbW-16" value="Update Needed Fields: Los, Marker Type, &lt;br&gt;Offset, Dig Required&lt;br&gt;etc&amp;nbsp;" style="rounded=1;whiteSpace=wrap;html=1;fontSize=12;glass=0;strokeWidth=1;shadow=0;" vertex="1" parent="WIyWlLk6GJQsqaUBKTNV-1">
          <mxGeometry x="360" y="50" width="140" height="80" as="geometry" />
        </mxCell>
        <mxCell id="1f6V_7u13nr4Cq0EWLbW-17" value="" style="edgeStyle=orthogonalEdgeStyle;rounded=0;orthogonalLoop=1;jettySize=auto;html=1;" edge="1" parent="WIyWlLk6GJQsqaUBKTNV-1" source="1f6V_7u13nr4Cq0EWLbW-21" target="1f6V_7u13nr4Cq0EWLbW-19">
          <mxGeometry relative="1" as="geometry" />
        </mxCell>
        <mxCell id="1f6V_7u13nr4Cq0EWLbW-25" value="" style="edgeStyle=orthogonalEdgeStyle;rounded=0;orthogonalLoop=1;jettySize=auto;html=1;" edge="1" parent="WIyWlLk6GJQsqaUBKTNV-1" source="1f6V_7u13nr4Cq0EWLbW-19" target="1f6V_7u13nr4Cq0EWLbW-24">
          <mxGeometry relative="1" as="geometry" />
        </mxCell>
        <mxCell id="1f6V_7u13nr4Cq0EWLbW-19" value="Change&lt;br&gt;Work Complete = Completed" style="rounded=1;whiteSpace=wrap;html=1;fontSize=12;glass=0;strokeWidth=1;shadow=0;" vertex="1" parent="WIyWlLk6GJQsqaUBKTNV-1">
          <mxGeometry x="575" y="175.63" width="120" height="70" as="geometry" />
        </mxCell>
        <mxCell id="1f6V_7u13nr4Cq0EWLbW-20" value="Marker is &lt;br&gt;Passed to Inspector for Verification" style="ellipse;whiteSpace=wrap;html=1;rounded=1;shadow=0;strokeWidth=1;glass=0;" vertex="1" parent="WIyWlLk6GJQsqaUBKTNV-1">
          <mxGeometry x="960" y="156.88" width="160" height="107.5" as="geometry" />
        </mxCell>
        <mxCell id="1f6V_7u13nr4Cq0EWLbW-21" value="Change&lt;br&gt;Work Required &lt;br&gt;If Needed&lt;br&gt;" style="rounded=1;whiteSpace=wrap;html=1;fontSize=12;glass=0;strokeWidth=1;shadow=0;" vertex="1" parent="WIyWlLk6GJQsqaUBKTNV-1">
          <mxGeometry x="560" y="55.629999999999995" width="150" height="70" as="geometry" />
        </mxCell>
        <mxCell id="1f6V_7u13nr4Cq0EWLbW-26" value="" style="edgeStyle=orthogonalEdgeStyle;rounded=0;orthogonalLoop=1;jettySize=auto;html=1;" edge="1" parent="WIyWlLk6GJQsqaUBKTNV-1" source="1f6V_7u13nr4Cq0EWLbW-24" target="1f6V_7u13nr4Cq0EWLbW-20">
          <mxGeometry relative="1" as="geometry" />
        </mxCell>
        <mxCell id="1f6V_7u13nr4Cq0EWLbW-24" value="Add Photos&lt;br&gt;" style="shape=cylinder3;whiteSpace=wrap;html=1;boundedLbl=1;backgroundOutline=1;size=15;" vertex="1" parent="WIyWlLk6GJQsqaUBKTNV-1">
          <mxGeometry x="750" y="165.13" width="160" height="91" as="geometry" />
        </mxCell>
        <mxCell id="1f6V_7u13nr4Cq0EWLbW-29" value="" style="edgeStyle=orthogonalEdgeStyle;rounded=0;orthogonalLoop=1;jettySize=auto;html=1;" edge="1" parent="WIyWlLk6GJQsqaUBKTNV-1" source="1f6V_7u13nr4Cq0EWLbW-27" target="1f6V_7u13nr4Cq0EWLbW-9">
          <mxGeometry relative="1" as="geometry" />
        </mxCell>
        <mxCell id="1f6V_7u13nr4Cq0EWLbW-27" value="Add Photos&lt;br&gt;" style="shape=cylinder3;whiteSpace=wrap;html=1;boundedLbl=1;backgroundOutline=1;size=15;" vertex="1" parent="WIyWlLk6GJQsqaUBKTNV-1">
          <mxGeometry x="230" y="649.5" width="160" height="91" as="geometry" />
        </mxCell>
      </root>
    </mxGraphModel>
  </diagram>
</mxfile>
